<?xml version="1.0" encoding="UTF-8"?>
<svg xmlns="http://www.w3.org/2000/svg" width="3600" height="1720" viewBox="0 0 3600 1720">
<defs>
  <marker id="arrow" viewBox="0 0 10 10" refX="9" refY="5" markerWidth="8" markerHeight="8" orient="auto-start-reverse">
    <path d="M 0 0 L 10 5 L 0 10 z" fill="#3d3d3d"/>
  </marker>
</defs>
<rect x="0" y="0" width="3600" height="1720" fill="#0f1115"/>
<text x="36" y="34" font-family="Helvetica,Arial,sans-serif" font-size="22" font-weight="700" fill="#f3f6fb">Holistic Model Picture</text>
<text x="36" y="58" font-family="Helvetica,Arial,sans-serif" font-size="12" fill="#c9d1dc">Stage-oriented diagram generated from the current system graph</text>
<rect x="50" y="90" width="3500" height="180" fill="#f9fbff" fill-opacity="0.93" stroke="#d6deea" stroke-width="1" rx="10"/>
<text x="68" y="110" font-family="Helvetica,Arial,sans-serif" font-size="13" font-weight="700" fill="#2c3a4b">Data &amp; Participants</text>
<rect x="50" y="290" width="3500" height="250" fill="#fffaf3" fill-opacity="0.93" stroke="#d6deea" stroke-width="1" rx="10"/>
<text x="68" y="310" font-family="Helvetica,Arial,sans-serif" font-size="13" font-weight="700" fill="#2c3a4b">Development Artifacts</text>
<rect x="50" y="560" width="3500" height="420" fill="#f7fcf8" fill-opacity="0.93" stroke="#d6deea" stroke-width="1" rx="10"/>
<text x="68" y="580" font-family="Helvetica,Arial,sans-serif" font-size="13" font-weight="700" fill="#2c3a4b">Supply Chain &amp; Deployment</text>
<rect x="50" y="1000" width="3500" height="220" fill="#f7f8ff" fill-opacity="0.93" stroke="#d6deea" stroke-width="1" rx="10"/>
<text x="68" y="1020" font-family="Helvetica,Arial,sans-serif" font-size="13" font-weight="700" fill="#2c3a4b">System Core</text>
<rect x="50" y="1240" width="3500" height="290" fill="#fff7fb" fill-opacity="0.93" stroke="#d6deea" stroke-width="1" rx="10"/>
<text x="68" y="1260" font-family="Helvetica,Arial,sans-serif" font-size="13" font-weight="700" fill="#2c3a4b">Inference Pipeline</text>
<rect x="50" y="1540" width="3500" height="140" fill="#f5fbff" fill-opacity="0.93" stroke="#d6deea" stroke-width="1" rx="10"/>
<text x="68" y="1560" font-family="Helvetica,Arial,sans-serif" font-size="13" font-weight="700" fill="#2c3a4b">Interaction Layer</text>
<path d="M 612.0 184.0 C 594.3 184.0, 577.7 384.0, 560.0 384.0" fill="none" stroke="#4c9dff" stroke-width="2.05" marker-end="url(#arrow)"/>
<text x="586.0" y="278.0" font-family="Helvetica,Arial,sans-serif" font-size="9.5" fill="#d7dde7" text-anchor="middle">1.Process</text>
<path d="M 1072.0 384.0 C 748.3 384.0, 443.7 514.0, 120.0 514.0" fill="none" stroke="#4c9dff" stroke-width="2.05" marker-end="url(#arrow)"/>
<text x="596.0" y="443.0" font-family="Helvetica,Arial,sans-serif" font-size="9.5" fill="#d7dde7" text-anchor="middle">2.Train</text>
<path d="M 1072.0 514.0 C 897.9 514.0, 734.1 514.0, 560.0 514.0" fill="none" stroke="#4c9dff" stroke-width="2.05" marker-end="url(#arrow)"/>
<text x="816.0" y="508.0" font-family="Helvetica,Arial,sans-serif" font-size="9.5" fill="#d7dde7" text-anchor="middle">3.Upload</text>
<path d="M 2852.0 864.0 C 1923.1 864.0, 1048.9 944.0, 120.0 944.0" fill="none" stroke="#4c9dff" stroke-width="2.05" marker-end="url(#arrow)"/>
<text x="1486.0" y="898.0" font-family="Helvetica,Arial,sans-serif" font-size="9.5" fill="#d7dde7" text-anchor="middle">4.Download</text>
<path d="M 1722.0 664.0 C 1782.5 664.0, 1839.5 664.0, 1900.0 664.0" fill="none" stroke="#4c9dff" stroke-width="2.05" marker-end="url(#arrow)"/>
<text x="1811.0" y="658.0" font-family="Helvetica,Arial,sans-serif" font-size="9.5" fill="#d7dde7" text-anchor="middle">5.Program</text>
<path d="M 1722.0 804.0 C 1629.5 804.0, 1542.5 804.0, 1450.0 804.0" fill="none" stroke="#4c9dff" stroke-width="2.05" marker-end="url(#arrow)"/>
<text x="1586.0" y="798.0" font-family="Helvetica,Arial,sans-serif" font-size="9.5" fill="#d7dde7" text-anchor="middle">6.Upload</text>
<path d="M 2852.0 864.0 C 2375.3 864.0, 1926.7 944.0, 1450.0 944.0" fill="none" stroke="#4c9dff" stroke-width="2.05" marker-end="url(#arrow)"/>
<text x="2151.0" y="898.0" font-family="Helvetica,Arial,sans-serif" font-size="9.5" fill="#d7dde7" text-anchor="middle">7.Download</text>
<path d="M 2852.0 864.0 C 2681.3 864.0, 2520.7 944.0, 2350.0 944.0" fill="none" stroke="#4c9dff" stroke-width="2.05" marker-end="url(#arrow)"/>
<text x="2601.0" y="898.0" font-family="Helvetica,Arial,sans-serif" font-size="9.5" fill="#d7dde7" text-anchor="middle">8.Download</text>
<path d="M 2372.0 1124.0 C 2211.5 1124.0, 2060.5 1124.0, 1900.0 1124.0" fill="none" stroke="#4c9dff" stroke-width="2.05" marker-end="url(#arrow)"/>
<text x="2136.0" y="1118.0" font-family="Helvetica,Arial,sans-serif" font-size="9.5" fill="#d7dde7" text-anchor="middle">9.Assemble</text>
<path d="M 992.0 1624.0 C 940.3 1624.0, 891.7 1504.0, 840.0 1504.0" fill="none" stroke="#4c9dff" stroke-width="2.05" marker-end="url(#arrow)"/>
<text x="916.0" y="1558.0" font-family="Helvetica,Arial,sans-serif" font-size="9.5" fill="#d7dde7" text-anchor="middle">10.Propose</text>
<path d="M 1432.0 1334.0 C 1472.1 1334.0, 1509.9 1504.0, 1550.0 1504.0" fill="none" stroke="#4c9dff" stroke-width="2.05" marker-end="url(#arrow)"/>
<text x="1491.0" y="1413.0" font-family="Helvetica,Arial,sans-serif" font-size="9.5" fill="#d7dde7" text-anchor="middle">11.Pre-Process</text>
<path d="M 2132.0 1334.0 C 2172.1 1334.0, 2209.9 1504.0, 2250.0 1504.0" fill="none" stroke="#4c9dff" stroke-width="2.05" marker-end="url(#arrow)"/>
<text x="2191.0" y="1413.0" font-family="Helvetica,Arial,sans-serif" font-size="9.5" fill="#d7dde7" text-anchor="middle">12.Inference</text>
<path d="M 2832.0 1334.0 C 2872.1 1334.0, 2909.9 1504.0, 2950.0 1504.0" fill="none" stroke="#4c9dff" stroke-width="2.05" marker-end="url(#arrow)"/>
<text x="2891.0" y="1413.0" font-family="Helvetica,Arial,sans-serif" font-size="9.5" fill="#d7dde7" text-anchor="middle">13.Post-Process</text>
<path d="M 1432.0 1334.0 C 1591.1 1334.0, 1740.9 1124.0, 1900.0 1124.0" fill="none" stroke="#71c08a" stroke-width="2.05" marker-end="url(#arrow)" stroke-dasharray="2 3"/>
<text x="1666.0" y="1223.0" font-family="Helvetica,Arial,sans-serif" font-size="9.5" fill="#d7dde7" text-anchor="middle">ComponentOf</text>
<path d="M 2132.0 1334.0 C 2053.1 1334.0, 1978.9 1124.0, 1900.0 1124.0" fill="none" stroke="#71c08a" stroke-width="2.05" marker-end="url(#arrow)" stroke-dasharray="2 3"/>
<text x="2016.0" y="1223.0" font-family="Helvetica,Arial,sans-serif" font-size="9.5" fill="#d7dde7" text-anchor="middle">ComponentOf</text>
<path d="M 2832.0 1334.0 C 2515.1 1334.0, 2216.9 1124.0, 1900.0 1124.0" fill="none" stroke="#71c08a" stroke-width="2.05" marker-end="url(#arrow)" stroke-dasharray="2 3"/>
<text x="2366.0" y="1223.0" font-family="Helvetica,Arial,sans-serif" font-size="9.5" fill="#d7dde7" text-anchor="middle">ComponentOf</text>
<path d="M 2132.0 1124.0 C 2488.3 1124.0, 2823.7 1124.0, 3180.0 1124.0" fill="none" stroke="#71c08a" stroke-width="2.05" marker-end="url(#arrow)" stroke-dasharray="2 3"/>
<text x="2656.0" y="1118.0" font-family="Helvetica,Arial,sans-serif" font-size="9.5" fill="#d7dde7" text-anchor="middle">ComponentOf</text>
<path d="M 3182.0 1504.0 C 2358.5 1504.0, 1583.5 1624.0, 760.0 1624.0" fill="none" stroke="#f0c24f" stroke-width="2.45" marker-end="url(#arrow)"/>
<text x="1971.0" y="1558.0" font-family="Helvetica,Arial,sans-serif" font-size="9.5" fill="#d7dde7" text-anchor="middle">R1.Respond</text>
<path d="M 3182.0 1504.0 C 3181.3 1504.0, 3180.7 1124.0, 3180.0 1124.0" fill="none" stroke="#f0c24f" stroke-width="2.45" marker-end="url(#arrow)"/>
<text x="3181.0" y="1308.0" font-family="Helvetica,Arial,sans-serif" font-size="9.5" fill="#d7dde7" text-anchor="middle">R2.Respond</text>
<path d="M 3412.0 1124.0 C 2897.9 1124.0, 2414.1 1124.0, 1900.0 1124.0" fill="none" stroke="#f0c24f" stroke-width="2.45" marker-end="url(#arrow)"/>
<text x="2656.0" y="1118.0" font-family="Helvetica,Arial,sans-serif" font-size="9.5" fill="#d7dde7" text-anchor="middle">R3.Respond</text>
<path d="M 1702.0 184.0 C 1252.5 184.0, 829.5 184.0, 380.0 184.0" fill="none" stroke="#f0c24f" stroke-width="2.45" marker-end="url(#arrow)"/>
<text x="1041.0" y="178.0" font-family="Helvetica,Arial,sans-serif" font-size="9.5" fill="#d7dde7" text-anchor="middle">R4.Respond</text>
<path d="M 1702.0 184.0 C 1466.7 184.0, 1245.3 384.0, 1010.0 384.0" fill="none" stroke="#f0c24f" stroke-width="2.45" marker-end="url(#arrow)"/>
<text x="1356.0" y="278.0" font-family="Helvetica,Arial,sans-serif" font-size="9.5" fill="#d7dde7" text-anchor="middle">R5.Respond</text>
<path d="M 1702.0 184.0 C 1616.3 184.0, 1535.7 664.0, 1450.0 664.0" fill="none" stroke="#f0c24f" stroke-width="2.45" marker-end="url(#arrow)"/>
<text x="1576.0" y="418.0" font-family="Helvetica,Arial,sans-serif" font-size="9.5" fill="#d7dde7" text-anchor="middle">R6.Respond</text>
<path d="M 1702.0 184.0 C 1850.9 184.0, 1991.1 1124.0, 2140.0 1124.0" fill="none" stroke="#f0c24f" stroke-width="2.45" marker-end="url(#arrow)"/>
<text x="1921.0" y="648.0" font-family="Helvetica,Arial,sans-serif" font-size="9.5" fill="#d7dde7" text-anchor="middle">R7.Respond</text>
<path d="M 342.0 184.0 C 354.9 184.0, 367.1 184.0, 380.0 184.0" fill="none" stroke="#8c93a1" stroke-width="2.05" marker-end="url(#arrow)" stroke-dasharray="7 4"/>
<text x="361.0" y="178.0" font-family="Helvetica,Arial,sans-serif" font-size="9.5" fill="#d7dde7" text-anchor="middle">1.Process</text>
<path d="M 792.0 384.0 C 808.3 384.0, 823.7 384.0, 840.0 384.0" fill="none" stroke="#8c93a1" stroke-width="2.05" marker-end="url(#arrow)" stroke-dasharray="7 4"/>
<text x="816.0" y="378.0" font-family="Helvetica,Arial,sans-serif" font-size="9.5" fill="#d7dde7" text-anchor="middle">2.Train</text>
<path d="M 352.0 514.0 C 517.9 514.0, 674.1 514.0, 840.0 514.0" fill="none" stroke="#8c93a1" stroke-width="2.05" marker-end="url(#arrow)" stroke-dasharray="7 4"/>
<text x="596.0" y="508.0" font-family="Helvetica,Arial,sans-serif" font-size="9.5" fill="#d7dde7" text-anchor="middle">3.Upload</text>
<path d="M 792.0 514.0 C 1413.5 514.0, 1998.5 864.0, 2620.0 864.0" fill="none" stroke="#8c93a1" stroke-width="2.05" marker-end="url(#arrow)" stroke-dasharray="7 4"/>
<text x="1706.0" y="683.0" font-family="Helvetica,Arial,sans-serif" font-size="9.5" fill="#d7dde7" text-anchor="middle">4.Download</text>
<path d="M 2132.0 664.0 C 1913.7 664.0, 1708.3 804.0, 1490.0 804.0" fill="none" stroke="#8c93a1" stroke-width="2.05" marker-end="url(#arrow)" stroke-dasharray="7 4"/>
<text x="1811.0" y="728.0" font-family="Helvetica,Arial,sans-serif" font-size="9.5" fill="#d7dde7" text-anchor="middle">6.Upload</text>
<path d="M 1682.0 804.0 C 2000.9 804.0, 2301.1 864.0, 2620.0 864.0" fill="none" stroke="#8c93a1" stroke-width="2.05" marker-end="url(#arrow)" stroke-dasharray="7 4"/>
<text x="2151.0" y="828.0" font-family="Helvetica,Arial,sans-serif" font-size="9.5" fill="#d7dde7" text-anchor="middle">7.Download</text>
<path d="M 2582.0 804.0 C 2594.9 804.0, 2607.1 864.0, 2620.0 864.0" fill="none" stroke="#8c93a1" stroke-width="2.05" marker-end="url(#arrow)" stroke-dasharray="7 4"/>
<text x="2601.0" y="828.0" font-family="Helvetica,Arial,sans-serif" font-size="9.5" fill="#d7dde7" text-anchor="middle">8.Download</text>
<path d="M 1682.0 944.0 C 1837.7 944.0, 1984.3 1124.0, 2140.0 1124.0" fill="none" stroke="#8c93a1" stroke-width="2.05" marker-end="url(#arrow)" stroke-dasharray="7 4"/>
<text x="1911.0" y="1028.0" font-family="Helvetica,Arial,sans-serif" font-size="9.5" fill="#d7dde7" text-anchor="middle">9.Assemble</text>
<path d="M 1072.0 1504.0 C 1115.5 1504.0, 1156.5 1334.0, 1200.0 1334.0" fill="none" stroke="#8c93a1" stroke-width="2.05" marker-end="url(#arrow)" stroke-dasharray="7 4"/>
<text x="1136.0" y="1413.0" font-family="Helvetica,Arial,sans-serif" font-size="9.5" fill="#d7dde7" text-anchor="middle">11.Pre-Process</text>
<path d="M 1782.0 1504.0 C 1822.1 1504.0, 1859.9 1334.0, 1900.0 1334.0" fill="none" stroke="#8c93a1" stroke-width="2.05" marker-end="url(#arrow)" stroke-dasharray="7 4"/>
<text x="1841.0" y="1413.0" font-family="Helvetica,Arial,sans-serif" font-size="9.5" fill="#d7dde7" text-anchor="middle">12.Inference</text>
<path d="M 2482.0 1504.0 C 2522.1 1504.0, 2559.9 1334.0, 2600.0 1334.0" fill="none" stroke="#8c93a1" stroke-width="2.05" marker-end="url(#arrow)" stroke-dasharray="7 4"/>
<text x="2541.0" y="1413.0" font-family="Helvetica,Arial,sans-serif" font-size="9.5" fill="#d7dde7" text-anchor="middle">13.Post-Process</text>
<rect x="1450.0" y="760.0" width="232" height="88" fill="#f8fbff" stroke="#8f99aa" stroke-width="1.1" rx="7"/>
<rect x="1450.0" y="760.0" width="232" height="24" fill="#e9edf3" stroke="#8f99aa" stroke-width="1.1" rx="7"/>
<line x1="1450.0" y1="784.0" x2="1682.0" y2="784.0" stroke="#aab2bf" stroke-width="0.8"/>
<text x="1460.0" y="777.0" font-family="Helvetica,Arial,sans-serif" font-size="12" font-weight="700" fill="#111">AppHub</text>
<text x="1460.0" y="799.0" font-family="Helvetica,Arial,sans-serif" font-size="10.5" font-weight="400" fill="#111">confidentiality: NonConfidential</text>
<text x="1460.0" y="818.0" font-family="Helvetica,Arial,sans-serif" font-size="10.5" font-weight="400" fill="#111">correctness: MixedCorrectness</text>
<text x="1460.0" y="837.0" font-family="Helvetica,Arial,sans-serif" font-size="10.5" font-weight="400" fill="#111">continuity: Continuous</text>
<rect x="1450.0" y="900.0" width="232" height="88" fill="#f8fbff" stroke="#8f99aa" stroke-width="1.1" rx="7"/>
<rect x="1450.0" y="900.0" width="232" height="24" fill="#e9edf3" stroke="#8f99aa" stroke-width="1.1" rx="7"/>
<line x1="1450.0" y1="924.0" x2="1682.0" y2="924.0" stroke="#aab2bf" stroke-width="0.8"/>
<text x="1460.0" y="917.0" font-family="Helvetica,Arial,sans-serif" font-size="12" font-weight="700" fill="#111">Application</text>
<text x="1460.0" y="939.0" font-family="Helvetica,Arial,sans-serif" font-size="10.5" font-weight="400" fill="#111">confidentiality: NonConfidential</text>
<text x="1460.0" y="958.0" font-family="Helvetica,Arial,sans-serif" font-size="10.5" font-weight="400" fill="#111">correctness: MixedCorrectness</text>
<text x="1460.0" y="977.0" font-family="Helvetica,Arial,sans-serif" font-size="10.5" font-weight="400" fill="#111">continuity: Continuous</text>
<rect x="1900.0" y="620.0" width="232" height="88" fill="#f8fbff" stroke="#8f99aa" stroke-width="1.1" rx="7"/>
<rect x="1900.0" y="620.0" width="232" height="24" fill="#e9edf3" stroke="#8f99aa" stroke-width="1.1" rx="7"/>
<line x1="1900.0" y1="644.0" x2="2132.0" y2="644.0" stroke="#aab2bf" stroke-width="0.8"/>
<text x="1910.0" y="637.0" font-family="Helvetica,Arial,sans-serif" font-size="12" font-weight="700" fill="#111">ApplicationProgrammed</text>
<text x="1910.0" y="659.0" font-family="Helvetica,Arial,sans-serif" font-size="10.5" font-weight="400" fill="#111">confidentiality: NonConfidential</text>
<text x="1910.0" y="678.0" font-family="Helvetica,Arial,sans-serif" font-size="10.5" font-weight="400" fill="#111">correctness: MixedCorrectness</text>
<text x="1910.0" y="697.0" font-family="Helvetica,Arial,sans-serif" font-size="10.5" font-weight="400" fill="#111">continuity: Continuous</text>
<rect x="380.0" y="140.0" width="232" height="88" fill="#fcfcfd" stroke="#8f99aa" stroke-width="1.1" rx="7"/>
<rect x="380.0" y="140.0" width="232" height="24" fill="#e9edf3" stroke="#8f99aa" stroke-width="1.1" rx="7"/>
<line x1="380.0" y1="164.0" x2="612.0" y2="164.0" stroke="#aab2bf" stroke-width="0.8"/>
<text x="390.0" y="157.0" font-family="Helvetica,Arial,sans-serif" font-size="12" font-weight="700" fill="#111">DataWorker</text>
<text x="390.0" y="179.0" font-family="Helvetica,Arial,sans-serif" font-size="10.5" font-weight="400" fill="#111">credibility: Untrusted</text>
<text x="390.0" y="198.0" font-family="Helvetica,Arial,sans-serif" font-size="10.5" font-weight="400" fill="#111">correctness: MixedCorrectness</text>
<text x="390.0" y="217.0" font-family="Helvetica,Arial,sans-serif" font-size="10.5" font-weight="400" fill="#111">continuity: MixedContinuity</text>
<rect x="2350.0" y="900.0" width="232" height="88" fill="#f8fbff" stroke="#8f99aa" stroke-width="1.1" rx="7"/>
<rect x="2350.0" y="900.0" width="232" height="24" fill="#e9edf3" stroke="#8f99aa" stroke-width="1.1" rx="7"/>
<line x1="2350.0" y1="924.0" x2="2582.0" y2="924.0" stroke="#aab2bf" stroke-width="0.8"/>
<text x="2360.0" y="917.0" font-family="Helvetica,Arial,sans-serif" font-size="12" font-weight="700" fill="#111">Dependency</text>
<text x="2360.0" y="939.0" font-family="Helvetica,Arial,sans-serif" font-size="10.5" font-weight="400" fill="#111">confidentiality: NonConfidential</text>
<text x="2360.0" y="958.0" font-family="Helvetica,Arial,sans-serif" font-size="10.5" font-weight="400" fill="#111">correctness: MixedCorrectness</text>
<text x="2360.0" y="977.0" font-family="Helvetica,Arial,sans-serif" font-size="10.5" font-weight="400" fill="#111">continuity: MixedContinuity</text>
<rect x="2350.0" y="760.0" width="232" height="88" fill="#f8fbff" stroke="#8f99aa" stroke-width="1.1" rx="7"/>
<rect x="2350.0" y="760.0" width="232" height="24" fill="#e9edf3" stroke="#8f99aa" stroke-width="1.1" rx="7"/>
<line x1="2350.0" y1="784.0" x2="2582.0" y2="784.0" stroke="#aab2bf" stroke-width="0.8"/>
<text x="2360.0" y="777.0" font-family="Helvetica,Arial,sans-serif" font-size="12" font-weight="700" fill="#111">DependencyHub</text>
<text x="2360.0" y="799.0" font-family="Helvetica,Arial,sans-serif" font-size="10.5" font-weight="400" fill="#111">confidentiality: NonConfidential</text>
<text x="2360.0" y="818.0" font-family="Helvetica,Arial,sans-serif" font-size="10.5" font-weight="400" fill="#111">correctness: MixedCorrectness</text>
<text x="2360.0" y="837.0" font-family="Helvetica,Arial,sans-serif" font-size="10.5" font-weight="400" fill="#111">continuity: MixedContinuity</text>
<rect x="1900.0" y="1290.0" width="232" height="88" fill="#fcfcfd" stroke="#8f99aa" stroke-width="1.1" rx="7"/>
<rect x="1900.0" y="1290.0" width="232" height="24" fill="#e9edf3" stroke="#8f99aa" stroke-width="1.1" rx="7"/>
<line x1="1900.0" y1="1314.0" x2="2132.0" y2="1314.0" stroke="#aab2bf" stroke-width="0.8"/>
<text x="1910.0" y="1307.0" font-family="Helvetica,Arial,sans-serif" font-size="12" font-weight="700" fill="#111">InferenceModule</text>
<text x="1910.0" y="1329.0" font-family="Helvetica,Arial,sans-serif" font-size="10.5" font-weight="400" fill="#111">credibility: Trusted</text>
<text x="1910.0" y="1348.0" font-family="Helvetica,Arial,sans-serif" font-size="10.5" font-weight="400" fill="#111">correctness: MixedCorrectness</text>
<text x="1910.0" y="1367.0" font-family="Helvetica,Arial,sans-serif" font-size="10.5" font-weight="400" fill="#111">continuity: MixedContinuity</text>
<rect x="840.0" y="1460.0" width="232" height="88" fill="#f8fbff" stroke="#8f99aa" stroke-width="1.1" rx="7"/>
<rect x="840.0" y="1460.0" width="232" height="24" fill="#e9edf3" stroke="#8f99aa" stroke-width="1.1" rx="7"/>
<line x1="840.0" y1="1484.0" x2="1072.0" y2="1484.0" stroke="#aab2bf" stroke-width="0.8"/>
<text x="850.0" y="1477.0" font-family="Helvetica,Arial,sans-serif" font-size="12" font-weight="700" fill="#111">InputQuery</text>
<text x="850.0" y="1499.0" font-family="Helvetica,Arial,sans-serif" font-size="10.5" font-weight="400" fill="#111">confidentiality: Confidential</text>
<text x="850.0" y="1518.0" font-family="Helvetica,Arial,sans-serif" font-size="10.5" font-weight="400" fill="#111">correctness: Correct</text>
<text x="850.0" y="1537.0" font-family="Helvetica,Arial,sans-serif" font-size="10.5" font-weight="400" fill="#111">continuity: Continuous</text>
<rect x="1550.0" y="1460.0" width="232" height="88" fill="#f8fbff" stroke="#8f99aa" stroke-width="1.1" rx="7"/>
<rect x="1550.0" y="1460.0" width="232" height="24" fill="#e9edf3" stroke="#8f99aa" stroke-width="1.1" rx="7"/>
<line x1="1550.0" y1="1484.0" x2="1782.0" y2="1484.0" stroke="#aab2bf" stroke-width="0.8"/>
<text x="1560.0" y="1477.0" font-family="Helvetica,Arial,sans-serif" font-size="12" font-weight="700" fill="#111">InputToken</text>
<text x="1560.0" y="1499.0" font-family="Helvetica,Arial,sans-serif" font-size="10.5" font-weight="400" fill="#111">confidentiality: Confidential</text>
<text x="1560.0" y="1518.0" font-family="Helvetica,Arial,sans-serif" font-size="10.5" font-weight="400" fill="#111">correctness: Correct</text>
<text x="1560.0" y="1537.0" font-family="Helvetica,Arial,sans-serif" font-size="10.5" font-weight="400" fill="#111">continuity: Continuous</text>
<rect x="1900.0" y="1080.0" width="232" height="88" fill="#fcfcfd" stroke="#8f99aa" stroke-width="1.1" rx="7"/>
<rect x="1900.0" y="1080.0" width="232" height="24" fill="#e9edf3" stroke="#8f99aa" stroke-width="1.1" rx="7"/>
<line x1="1900.0" y1="1104.0" x2="2132.0" y2="1104.0" stroke="#aab2bf" stroke-width="0.8"/>
<text x="1910.0" y="1097.0" font-family="Helvetica,Arial,sans-serif" font-size="12" font-weight="700" fill="#111">IntelligentSystem</text>
<text x="1910.0" y="1119.0" font-family="Helvetica,Arial,sans-serif" font-size="10.5" font-weight="400" fill="#111">credibility: MixedCredibility</text>
<text x="1910.0" y="1138.0" font-family="Helvetica,Arial,sans-serif" font-size="10.5" font-weight="400" fill="#111">correctness: MixedCorrectness</text>
<text x="1910.0" y="1157.0" font-family="Helvetica,Arial,sans-serif" font-size="10.5" font-weight="400" fill="#111">continuity: MixedContinuity</text>
<rect x="120.0" y="900.0" width="232" height="88" fill="#f8fbff" stroke="#8f99aa" stroke-width="1.1" rx="7"/>
<rect x="120.0" y="900.0" width="232" height="24" fill="#e9edf3" stroke="#8f99aa" stroke-width="1.1" rx="7"/>
<line x1="120.0" y1="924.0" x2="352.0" y2="924.0" stroke="#aab2bf" stroke-width="0.8"/>
<text x="130.0" y="917.0" font-family="Helvetica,Arial,sans-serif" font-size="12" font-weight="700" fill="#111">Model</text>
<text x="130.0" y="939.0" font-family="Helvetica,Arial,sans-serif" font-size="10.5" font-weight="400" fill="#111">confidentiality: Confidential</text>
<text x="130.0" y="958.0" font-family="Helvetica,Arial,sans-serif" font-size="10.5" font-weight="400" fill="#111">correctness: Correct</text>
<text x="130.0" y="977.0" font-family="Helvetica,Arial,sans-serif" font-size="10.5" font-weight="400" fill="#111">continuity: Continuous</text>
<rect x="560.0" y="470.0" width="232" height="88" fill="#f8fbff" stroke="#8f99aa" stroke-width="1.1" rx="7"/>
<rect x="560.0" y="470.0" width="232" height="24" fill="#e9edf3" stroke="#8f99aa" stroke-width="1.1" rx="7"/>
<line x1="560.0" y1="494.0" x2="792.0" y2="494.0" stroke="#aab2bf" stroke-width="0.8"/>
<text x="570.0" y="487.0" font-family="Helvetica,Arial,sans-serif" font-size="12" font-weight="700" fill="#111">ModelHub</text>
<text x="570.0" y="509.0" font-family="Helvetica,Arial,sans-serif" font-size="10.5" font-weight="400" fill="#111">confidentiality: NonConfidential</text>
<text x="570.0" y="528.0" font-family="Helvetica,Arial,sans-serif" font-size="10.5" font-weight="400" fill="#111">correctness: MixedCorrectness</text>
<text x="570.0" y="547.0" font-family="Helvetica,Arial,sans-serif" font-size="10.5" font-weight="400" fill="#111">continuity: MixedContinuity</text>
<rect x="120.0" y="340.0" width="232" height="88" fill="#f8fbff" stroke="#8f99aa" stroke-width="1.1" rx="7"/>
<rect x="120.0" y="340.0" width="232" height="24" fill="#e9edf3" stroke="#8f99aa" stroke-width="1.1" rx="7"/>
<line x1="120.0" y1="364.0" x2="352.0" y2="364.0" stroke="#aab2bf" stroke-width="0.8"/>
<text x="130.0" y="357.0" font-family="Helvetica,Arial,sans-serif" font-size="12" font-weight="700" fill="#111">ModelPretrained</text>
<text x="130.0" y="379.0" font-family="Helvetica,Arial,sans-serif" font-size="10.5" font-weight="400" fill="#111">confidentiality: NonConfidential</text>
<text x="130.0" y="398.0" font-family="Helvetica,Arial,sans-serif" font-size="10.5" font-weight="400" fill="#111">correctness: MixedCorrectness</text>
<text x="130.0" y="417.0" font-family="Helvetica,Arial,sans-serif" font-size="10.5" font-weight="400" fill="#111">continuity: MixedContinuity</text>
<rect x="120.0" y="470.0" width="232" height="88" fill="#f8fbff" stroke="#8f99aa" stroke-width="1.1" rx="7"/>
<rect x="120.0" y="470.0" width="232" height="24" fill="#e9edf3" stroke="#8f99aa" stroke-width="1.1" rx="7"/>
<line x1="120.0" y1="494.0" x2="352.0" y2="494.0" stroke="#aab2bf" stroke-width="0.8"/>
<text x="130.0" y="487.0" font-family="Helvetica,Arial,sans-serif" font-size="12" font-weight="700" fill="#111">ModelTrained</text>
<text x="130.0" y="509.0" font-family="Helvetica,Arial,sans-serif" font-size="10.5" font-weight="400" fill="#111">confidentiality: Confidential</text>
<text x="130.0" y="528.0" font-family="Helvetica,Arial,sans-serif" font-size="10.5" font-weight="400" fill="#111">correctness: Correct</text>
<text x="130.0" y="547.0" font-family="Helvetica,Arial,sans-serif" font-size="10.5" font-weight="400" fill="#111">continuity: Continuous</text>
<rect x="2950.0" y="1460.0" width="232" height="88" fill="#f8fbff" stroke="#8f99aa" stroke-width="1.1" rx="7"/>
<rect x="2950.0" y="1460.0" width="232" height="24" fill="#e9edf3" stroke="#8f99aa" stroke-width="1.1" rx="7"/>
<line x1="2950.0" y1="1484.0" x2="3182.0" y2="1484.0" stroke="#aab2bf" stroke-width="0.8"/>
<text x="2960.0" y="1477.0" font-family="Helvetica,Arial,sans-serif" font-size="12" font-weight="700" fill="#111">OutputMaterialized</text>
<text x="2960.0" y="1499.0" font-family="Helvetica,Arial,sans-serif" font-size="10.5" font-weight="400" fill="#111">confidentiality: MixedConfidentiality</text>
<text x="2960.0" y="1518.0" font-family="Helvetica,Arial,sans-serif" font-size="10.5" font-weight="400" fill="#111">correctness: Correct</text>
<text x="2960.0" y="1537.0" font-family="Helvetica,Arial,sans-serif" font-size="10.5" font-weight="400" fill="#111">continuity: Continuous</text>
<rect x="2250.0" y="1460.0" width="232" height="88" fill="#f8fbff" stroke="#8f99aa" stroke-width="1.1" rx="7"/>
<rect x="2250.0" y="1460.0" width="232" height="24" fill="#e9edf3" stroke="#8f99aa" stroke-width="1.1" rx="7"/>
<line x1="2250.0" y1="1484.0" x2="2482.0" y2="1484.0" stroke="#aab2bf" stroke-width="0.8"/>
<text x="2260.0" y="1477.0" font-family="Helvetica,Arial,sans-serif" font-size="12" font-weight="700" fill="#111">OutputToken</text>
<text x="2260.0" y="1499.0" font-family="Helvetica,Arial,sans-serif" font-size="10.5" font-weight="400" fill="#111">confidentiality: MixedConfidentiality</text>
<text x="2260.0" y="1518.0" font-family="Helvetica,Arial,sans-serif" font-size="10.5" font-weight="400" fill="#111">correctness: Correct</text>
<text x="2260.0" y="1537.0" font-family="Helvetica,Arial,sans-serif" font-size="10.5" font-weight="400" fill="#111">continuity: Continuous</text>
<rect x="2600.0" y="1290.0" width="232" height="88" fill="#fcfcfd" stroke="#8f99aa" stroke-width="1.1" rx="7"/>
<rect x="2600.0" y="1290.0" width="232" height="24" fill="#e9edf3" stroke="#8f99aa" stroke-width="1.1" rx="7"/>
<line x1="2600.0" y1="1314.0" x2="2832.0" y2="1314.0" stroke="#aab2bf" stroke-width="0.8"/>
<text x="2610.0" y="1307.0" font-family="Helvetica,Arial,sans-serif" font-size="12" font-weight="700" fill="#111">PostprocessingModule</text>
<text x="2610.0" y="1329.0" font-family="Helvetica,Arial,sans-serif" font-size="10.5" font-weight="400" fill="#111">credibility: Trusted</text>
<text x="2610.0" y="1348.0" font-family="Helvetica,Arial,sans-serif" font-size="10.5" font-weight="400" fill="#111">correctness: MixedCorrectness</text>
<text x="2610.0" y="1367.0" font-family="Helvetica,Arial,sans-serif" font-size="10.5" font-weight="400" fill="#111">continuity: MixedContinuity</text>
<rect x="1200.0" y="1290.0" width="232" height="88" fill="#fcfcfd" stroke="#8f99aa" stroke-width="1.1" rx="7"/>
<rect x="1200.0" y="1290.0" width="232" height="24" fill="#e9edf3" stroke="#8f99aa" stroke-width="1.1" rx="7"/>
<line x1="1200.0" y1="1314.0" x2="1432.0" y2="1314.0" stroke="#aab2bf" stroke-width="0.8"/>
<text x="1210.0" y="1307.0" font-family="Helvetica,Arial,sans-serif" font-size="12" font-weight="700" fill="#111">PreprocessingModule</text>
<text x="1210.0" y="1329.0" font-family="Helvetica,Arial,sans-serif" font-size="10.5" font-weight="400" fill="#111">credibility: Trusted</text>
<text x="1210.0" y="1348.0" font-family="Helvetica,Arial,sans-serif" font-size="10.5" font-weight="400" fill="#111">correctness: MixedCorrectness</text>
<text x="1210.0" y="1367.0" font-family="Helvetica,Arial,sans-serif" font-size="10.5" font-weight="400" fill="#111">continuity: MixedContinuity</text>
<rect x="560.0" y="340.0" width="232" height="88" fill="#f8fbff" stroke="#8f99aa" stroke-width="1.1" rx="7"/>
<rect x="560.0" y="340.0" width="232" height="24" fill="#e9edf3" stroke="#8f99aa" stroke-width="1.1" rx="7"/>
<line x1="560.0" y1="364.0" x2="792.0" y2="364.0" stroke="#aab2bf" stroke-width="0.8"/>
<text x="570.0" y="357.0" font-family="Helvetica,Arial,sans-serif" font-size="12" font-weight="700" fill="#111">ProcessedData</text>
<text x="570.0" y="379.0" font-family="Helvetica,Arial,sans-serif" font-size="10.5" font-weight="400" fill="#111">confidentiality: Confidential</text>
<text x="570.0" y="398.0" font-family="Helvetica,Arial,sans-serif" font-size="10.5" font-weight="400" fill="#111">correctness: MixedCorrectness</text>
<text x="570.0" y="417.0" font-family="Helvetica,Arial,sans-serif" font-size="10.5" font-weight="400" fill="#111">continuity: Continuous</text>
<rect x="110.0" y="140.0" width="232" height="88" fill="#f8fbff" stroke="#8f99aa" stroke-width="1.1" rx="7"/>
<rect x="110.0" y="140.0" width="232" height="24" fill="#e9edf3" stroke="#8f99aa" stroke-width="1.1" rx="7"/>
<line x1="110.0" y1="164.0" x2="342.0" y2="164.0" stroke="#aab2bf" stroke-width="0.8"/>
<text x="120.0" y="157.0" font-family="Helvetica,Arial,sans-serif" font-size="12" font-weight="700" fill="#111">RawData</text>
<text x="120.0" y="179.0" font-family="Helvetica,Arial,sans-serif" font-size="10.5" font-weight="400" fill="#111">confidentiality: Confidential</text>
<text x="120.0" y="198.0" font-family="Helvetica,Arial,sans-serif" font-size="10.5" font-weight="400" fill="#111">correctness: Correct</text>
<text x="120.0" y="217.0" font-family="Helvetica,Arial,sans-serif" font-size="10.5" font-weight="400" fill="#111">continuity: Continuous</text>
<rect x="1470.0" y="140.0" width="232" height="88" fill="#ffffff" stroke="#8d99a8" stroke-width="1.1" rx="7" stroke-dasharray="5 3"/>
<rect x="1470.0" y="140.0" width="232" height="24" fill="#eef2f7" stroke="#8d99a8" stroke-width="1.1" rx="7" stroke-dasharray="5 3"/>
<line x1="1470.0" y1="164.0" x2="1702.0" y2="164.0" stroke="#aab2bf" stroke-width="0.8"/>
<text x="1480.0" y="157.0" font-family="Helvetica,Arial,sans-serif" font-size="11.5" font-weight="700" fill="#1f2937">Users (upper)</text>
<text x="1480.0" y="179.0" font-family="Helvetica,Arial,sans-serif" font-size="10" font-weight="400" fill="#1f2937">credibility: Trusted</text>
<text x="1480.0" y="198.0" font-family="Helvetica,Arial,sans-serif" font-size="10" font-weight="400" fill="#1f2937">correctness: Correct</text>
<text x="1480.0" y="217.0" font-family="Helvetica,Arial,sans-serif" font-size="10" font-weight="400" fill="#1f2937">continuity: Continuous</text>
<rect x="760.0" y="1580.0" width="232" height="88" fill="#ffffff" stroke="#8d99a8" stroke-width="1.1" rx="7" stroke-dasharray="5 3"/>
<rect x="760.0" y="1580.0" width="232" height="24" fill="#eef2f7" stroke="#8d99a8" stroke-width="1.1" rx="7" stroke-dasharray="5 3"/>
<line x1="760.0" y1="1604.0" x2="992.0" y2="1604.0" stroke="#aab2bf" stroke-width="0.8"/>
<text x="770.0" y="1597.0" font-family="Helvetica,Arial,sans-serif" font-size="11.5" font-weight="700" fill="#1f2937">Users (lower)</text>
<text x="770.0" y="1619.0" font-family="Helvetica,Arial,sans-serif" font-size="10" font-weight="400" fill="#1f2937">credibility: Trusted</text>
<text x="770.0" y="1638.0" font-family="Helvetica,Arial,sans-serif" font-size="10" font-weight="400" fill="#1f2937">correctness: Correct</text>
<text x="770.0" y="1657.0" font-family="Helvetica,Arial,sans-serif" font-size="10" font-weight="400" fill="#1f2937">continuity: Continuous</text>
<rect x="840.0" y="340.0" width="232" height="88" fill="#ffffff" stroke="#8d99a8" stroke-width="1.1" rx="7" stroke-dasharray="5 3"/>
<rect x="840.0" y="340.0" width="232" height="24" fill="#eef2f7" stroke="#8d99a8" stroke-width="1.1" rx="7" stroke-dasharray="5 3"/>
<line x1="840.0" y1="364.0" x2="1072.0" y2="364.0" stroke="#aab2bf" stroke-width="0.8"/>
<text x="850.0" y="357.0" font-family="Helvetica,Arial,sans-serif" font-size="11.5" font-weight="700" fill="#1f2937">Model Developers (train)</text>
<text x="850.0" y="379.0" font-family="Helvetica,Arial,sans-serif" font-size="10" font-weight="400" fill="#1f2937">credibility: Trusted</text>
<text x="850.0" y="398.0" font-family="Helvetica,Arial,sans-serif" font-size="10" font-weight="400" fill="#1f2937">correctness: Correct</text>
<text x="850.0" y="417.0" font-family="Helvetica,Arial,sans-serif" font-size="10" font-weight="400" fill="#1f2937">continuity: Continuous</text>
<rect x="840.0" y="470.0" width="232" height="88" fill="#ffffff" stroke="#8d99a8" stroke-width="1.1" rx="7" stroke-dasharray="5 3"/>
<rect x="840.0" y="470.0" width="232" height="24" fill="#eef2f7" stroke="#8d99a8" stroke-width="1.1" rx="7" stroke-dasharray="5 3"/>
<line x1="840.0" y1="494.0" x2="1072.0" y2="494.0" stroke="#aab2bf" stroke-width="0.8"/>
<text x="850.0" y="487.0" font-family="Helvetica,Arial,sans-serif" font-size="11.5" font-weight="700" fill="#1f2937">Model Developers (upload)</text>
<text x="850.0" y="509.0" font-family="Helvetica,Arial,sans-serif" font-size="10" font-weight="400" fill="#1f2937">credibility: Trusted</text>
<text x="850.0" y="528.0" font-family="Helvetica,Arial,sans-serif" font-size="10" font-weight="400" fill="#1f2937">correctness: Correct</text>
<text x="850.0" y="547.0" font-family="Helvetica,Arial,sans-serif" font-size="10" font-weight="400" fill="#1f2937">continuity: Continuous</text>
<rect x="1490.0" y="620.0" width="232" height="88" fill="#ffffff" stroke="#8d99a8" stroke-width="1.1" rx="7" stroke-dasharray="5 3"/>
<rect x="1490.0" y="620.0" width="232" height="24" fill="#eef2f7" stroke="#8d99a8" stroke-width="1.1" rx="7" stroke-dasharray="5 3"/>
<line x1="1490.0" y1="644.0" x2="1722.0" y2="644.0" stroke="#aab2bf" stroke-width="0.8"/>
<text x="1500.0" y="637.0" font-family="Helvetica,Arial,sans-serif" font-size="11.5" font-weight="700" fill="#1f2937">App Developers (program)</text>
<text x="1500.0" y="659.0" font-family="Helvetica,Arial,sans-serif" font-size="10" font-weight="400" fill="#1f2937">credibility: Untrusted</text>
<text x="1500.0" y="678.0" font-family="Helvetica,Arial,sans-serif" font-size="10" font-weight="400" fill="#1f2937">correctness: MixedCorrectness</text>
<text x="1500.0" y="697.0" font-family="Helvetica,Arial,sans-serif" font-size="10" font-weight="400" fill="#1f2937">continuity: MixedContinuity</text>
<rect x="1490.0" y="760.0" width="232" height="88" fill="#ffffff" stroke="#8d99a8" stroke-width="1.1" rx="7" stroke-dasharray="5 3"/>
<rect x="1490.0" y="760.0" width="232" height="24" fill="#eef2f7" stroke="#8d99a8" stroke-width="1.1" rx="7" stroke-dasharray="5 3"/>
<line x1="1490.0" y1="784.0" x2="1722.0" y2="784.0" stroke="#aab2bf" stroke-width="0.8"/>
<text x="1500.0" y="777.0" font-family="Helvetica,Arial,sans-serif" font-size="11.5" font-weight="700" fill="#1f2937">App Developers (upload)</text>
<text x="1500.0" y="799.0" font-family="Helvetica,Arial,sans-serif" font-size="10" font-weight="400" fill="#1f2937">credibility: Untrusted</text>
<text x="1500.0" y="818.0" font-family="Helvetica,Arial,sans-serif" font-size="10" font-weight="400" fill="#1f2937">correctness: MixedCorrectness</text>
<text x="1500.0" y="837.0" font-family="Helvetica,Arial,sans-serif" font-size="10" font-weight="400" fill="#1f2937">continuity: MixedContinuity</text>
<rect x="2620.0" y="820.0" width="232" height="88" fill="#ffffff" stroke="#8d99a8" stroke-width="1.1" rx="7" stroke-dasharray="5 3"/>
<rect x="2620.0" y="820.0" width="232" height="24" fill="#eef2f7" stroke="#8d99a8" stroke-width="1.1" rx="7" stroke-dasharray="5 3"/>
<line x1="2620.0" y1="844.0" x2="2852.0" y2="844.0" stroke="#aab2bf" stroke-width="0.8"/>
<text x="2630.0" y="837.0" font-family="Helvetica,Arial,sans-serif" font-size="11.5" font-weight="700" fill="#1f2937">Maintainers (download)</text>
<text x="2630.0" y="859.0" font-family="Helvetica,Arial,sans-serif" font-size="10" font-weight="400" fill="#1f2937">credibility: Untrusted</text>
<text x="2630.0" y="878.0" font-family="Helvetica,Arial,sans-serif" font-size="10" font-weight="400" fill="#1f2937">correctness: MixedCorrectness</text>
<text x="2630.0" y="897.0" font-family="Helvetica,Arial,sans-serif" font-size="10" font-weight="400" fill="#1f2937">continuity: Discontinuous</text>
<rect x="2140.0" y="1080.0" width="232" height="88" fill="#ffffff" stroke="#8d99a8" stroke-width="1.1" rx="7" stroke-dasharray="5 3"/>
<rect x="2140.0" y="1080.0" width="232" height="24" fill="#eef2f7" stroke="#8d99a8" stroke-width="1.1" rx="7" stroke-dasharray="5 3"/>
<line x1="2140.0" y1="1104.0" x2="2372.0" y2="1104.0" stroke="#aab2bf" stroke-width="0.8"/>
<text x="2150.0" y="1097.0" font-family="Helvetica,Arial,sans-serif" font-size="11.5" font-weight="700" fill="#1f2937">Maintainers (assemble)</text>
<text x="2150.0" y="1119.0" font-family="Helvetica,Arial,sans-serif" font-size="10" font-weight="400" fill="#1f2937">credibility: Untrusted</text>
<text x="2150.0" y="1138.0" font-family="Helvetica,Arial,sans-serif" font-size="10" font-weight="400" fill="#1f2937">correctness: MixedCorrectness</text>
<text x="2150.0" y="1157.0" font-family="Helvetica,Arial,sans-serif" font-size="10" font-weight="400" fill="#1f2937">continuity: Discontinuous</text>
<rect x="3180.0" y="1080.0" width="232" height="88" fill="#ffffff" stroke="#8d99a8" stroke-width="1.1" rx="7" stroke-dasharray="5 3"/>
<rect x="3180.0" y="1080.0" width="232" height="24" fill="#eef2f7" stroke="#8d99a8" stroke-width="1.1" rx="7" stroke-dasharray="5 3"/>
<line x1="3180.0" y1="1104.0" x2="3412.0" y2="1104.0" stroke="#aab2bf" stroke-width="0.8"/>
<text x="3190.0" y="1097.0" font-family="Helvetica,Arial,sans-serif" font-size="11.5" font-weight="700" fill="#1f2937">Operating Env (response)</text>
<text x="3190.0" y="1119.0" font-family="Helvetica,Arial,sans-serif" font-size="10" font-weight="400" fill="#1f2937">credibility: MixedCredibility</text>
<text x="3190.0" y="1138.0" font-family="Helvetica,Arial,sans-serif" font-size="10" font-weight="400" fill="#1f2937">correctness: MixedCorrectness</text>
<text x="3190.0" y="1157.0" font-family="Helvetica,Arial,sans-serif" font-size="10" font-weight="400" fill="#1f2937">continuity: MixedContinuity</text>
<rect x="980" y="62" width="14" height="14" fill="#ffffff" stroke="#98a1ae" stroke-width="1" rx="2"/>
<text x="1000" y="74" font-family="Helvetica,Arial,sans-serif" font-size="11" fill="#475467">Participant node</text>
<rect x="1160" y="62" width="14" height="14" fill="#ffffff" stroke="#98a1ae" stroke-width="1" rx="2"/>
<text x="1180" y="74" font-family="Helvetica,Arial,sans-serif" font-size="11" fill="#475467">Source node</text>
<rect x="1340" y="62" width="14" height="14" fill="#ffffff" stroke="#98a1ae" stroke-width="1" rx="2"/>
<text x="1360" y="74" font-family="Helvetica,Arial,sans-serif" font-size="11" fill="#475467">Agent node</text>
<rect x="1520" y="62" width="14" height="14" fill="#ffffff" stroke="#98a1ae" stroke-width="1" rx="2"/>
<text x="1540" y="74" font-family="Helvetica,Arial,sans-serif" font-size="11" fill="#475467">Asset node</text>
<rect x="34" y="1602" width="560" height="88" fill="#ffffff" stroke="#cfd6df" stroke-width="1" rx="8"/>
<text x="46" y="1622" font-family="Helvetica,Arial,sans-serif" font-size="12" font-weight="700" fill="#243447">Edge Legend</text>
<line x1="48" y1="1642" x2="76" y2="1642" stroke="#2f6fb5" stroke-width="2"/>
<text x="82" y="1645" font-family="Helvetica,Arial,sans-serif" font-size="10.5" fill="#1f2937">Act</text>
<line x1="180" y1="1652" x2="208" y2="1652" stroke="#6b7280" stroke-width="2" stroke-dasharray="7 4"/>
<text x="214" y="1655" font-family="Helvetica,Arial,sans-serif" font-size="10.5" fill="#1f2937">ActedOnBy</text>
<line x1="312" y1="1662" x2="340" y2="1662" stroke="#c58a00" stroke-width="2"/>
<text x="346" y="1665" font-family="Helvetica,Arial,sans-serif" font-size="10.5" fill="#1f2937">Respond</text>
<line x1="444" y1="1672" x2="472" y2="1672" stroke="#3f8a5e" stroke-width="2" stroke-dasharray="2 3"/>
<text x="478" y="1675" font-family="Helvetica,Arial,sans-serif" font-size="10.5" fill="#1f2937">ComponentOf</text>
</svg>